<svg xmlns="http://www.w3.org/2000/svg" viewBox="0 0 164.38 80.28"><defs><style>.cls-1{fill:#fff;}</style></defs><title>Ресурс 1</title><g id="Слой_2" data-name="Слой 2"><g id="Слой_1-2" data-name="Слой 1"><path id="path40" class="cls-1" d="M5.74.34h27.5a9.26,9.26,0,0,1,3.3.3,3.37,3.37,0,0,1,2.1,2.1,9.61,9.61,0,0,1,.3,3.4v25.7a9.26,9.26,0,0,1-.3,3.3,3.37,3.37,0,0,1-2.1,2.1,9.61,9.61,0,0,1-3.4.3H5.74a9.26,9.26,0,0,1-3.3-.3,3.62,3.62,0,0,1-2.1-2.1,10,10,0,0,1-.3-3.4V6a9.26,9.26,0,0,1,.3-3.3A3.62,3.62,0,0,1,2.44.64a9.26,9.26,0,0,1,3.3-.3Z"/><path id="path42" class="cls-1" d="M5.74,43h27.5a9.26,9.26,0,0,1,3.3.3,3.37,3.37,0,0,1,2.1,2.1,9.61,9.61,0,0,1,.3,3.4v25.7a9.26,9.26,0,0,1-.3,3.3,3.62,3.62,0,0,1-2.1,2.1,9.61,9.61,0,0,1-3.4.3H5.74a9.26,9.26,0,0,1-3.3-.3,3.62,3.62,0,0,1-2.1-2.1,10,10,0,0,1-.3-3.4V48.74a9.26,9.26,0,0,1,.3-3.3,3.16,3.16,0,0,1,2.1-2.1,6.24,6.24,0,0,1,3.3-.3Z"/><path id="path44" class="cls-1" d="M53.24.34h27.5a9.26,9.26,0,0,1,3.3.3,3.37,3.37,0,0,1,2.1,2.1,9.61,9.61,0,0,1,.3,3.4v25.7a9.26,9.26,0,0,1-.3,3.3,3.37,3.37,0,0,1-2.1,2.1,9.61,9.61,0,0,1-3.4.3H53.24a9.26,9.26,0,0,1-3.3-.3,3.62,3.62,0,0,1-2.1-2.1,9.61,9.61,0,0,1-.3-3.4V6a9.26,9.26,0,0,1,.3-3.3,3.62,3.62,0,0,1,2.1-2.1,9.26,9.26,0,0,1,3.3-.3Z"/><path id="path46" class="cls-1" d="M92.64,43h27.5a9.26,9.26,0,0,1,3.3.3,3.62,3.62,0,0,1,2.1,2.1,9.61,9.61,0,0,1,.3,3.4v25.7a9.26,9.26,0,0,1-.3,3.3,3.62,3.62,0,0,1-2.1,2.1,9.61,9.61,0,0,1-3.4.3H92.64a9.26,9.26,0,0,1-3.3-.3,3.37,3.37,0,0,1-2.1-2.1,9.61,9.61,0,0,1-.3-3.4V48.74a9.26,9.26,0,0,1,.3-3.3,3.16,3.16,0,0,1,2.1-2.1,6.15,6.15,0,0,1,3.3-.3Z"/><path id="path48" class="cls-1" d="M131.14,0h27.5a9.26,9.26,0,0,1,3.3.3,3.37,3.37,0,0,1,2.1,2.1,9.61,9.61,0,0,1,.3,3.4v25.7a9.26,9.26,0,0,1-.3,3.3,3.62,3.62,0,0,1-2.1,2.1,9.61,9.61,0,0,1-3.4.3H131a9.26,9.26,0,0,1-3.3-.3,3.62,3.62,0,0,1-2.1-2.1,9.61,9.61,0,0,1-.3-3.4V5.74a9.26,9.26,0,0,1,.3-3.3,3.62,3.62,0,0,1,2.1-2.1,19.53,19.53,0,0,1,3.4-.3Z"/></g></g></svg>