<?xml version="1.0" encoding="utf-8"?>
<!-- Generator: Adobe Illustrator 23.0.1, SVG Export Plug-In . SVG Version: 6.00 Build 0)  -->
<svg version="1.1" id="Слой_1" xmlns="http://www.w3.org/2000/svg" xmlns:xlink="http://www.w3.org/1999/xlink" x="0px" y="0px"
	 viewBox="0 0 651.6 109.1" style="enable-background:new 0 0 651.6 109.1;" xml:space="preserve">
<style type="text/css">
	.st0{enable-background:new    ;}
</style>
<title>Монтажная область 1</title>
<path id="path40" d="M5.7,8.1h27.5c1.1-0.1,2.2,0,3.3,0.3c1,0.3,1.7,1.1,2.1,2.1c0.3,1.1,0.4,2.2,0.3,3.4v25.7
	c0.1,1.1,0,2.2-0.3,3.3c-0.3,1-1.1,1.7-2.1,2.1c-1.1,0.3-2.2,0.4-3.4,0.3H5.7c-1.1,0.1-2.2,0-3.3-0.3c-1-0.4-1.7-1.1-2.1-2.1
	C0,41.7-0.1,40.6,0,39.5V13.8c-0.1-1.1,0-2.2,0.3-3.3c0.4-1,1.1-1.7,2.1-2.1C3.5,8.1,4.6,8,5.7,8.1L5.7,8.1z"/>
<path id="path42" d="M5.7,50.8h27.5c1.1-0.1,2.2,0,3.3,0.3c1,0.3,1.7,1.1,2.1,2.1c0.3,1.1,0.4,2.2,0.3,3.4v25.7
	c0.1,1.1,0,2.2-0.3,3.3c-0.4,1-1.1,1.7-2.1,2.1c-1.1,0.3-2.2,0.4-3.4,0.3H5.7c-1.1,0.1-2.2,0-3.3-0.3c-1-0.4-1.7-1.1-2.1-2.1
	C0,84.4-0.1,83.3,0,82.2V56.5c-0.1-1.1,0-2.2,0.3-3.3c0.3-1,1.1-1.8,2.1-2.1C3.5,50.7,4.6,50.6,5.7,50.8L5.7,50.8z"/>
<path id="path44" d="M53.2,8.1h27.5c1.1-0.1,2.2,0,3.3,0.3c1,0.3,1.7,1.1,2.1,2.1c0.3,1.1,0.4,2.2,0.3,3.4v25.7
	c0.1,1.1,0,2.2-0.3,3.3c-0.3,1-1.1,1.7-2.1,2.1c-1.1,0.3-2.2,0.4-3.4,0.3H53.2c-1.1,0.1-2.2,0-3.3-0.3c-1-0.4-1.7-1.1-2.1-2.1
	c-0.3-1.1-0.4-2.2-0.3-3.4V13.8c-0.1-1.1,0-2.2,0.3-3.3c0.4-1,1.1-1.7,2.1-2.1C51,8.1,52.1,8,53.2,8.1L53.2,8.1z"/>
<path id="path46" d="M92.6,50.8h27.5c1.1-0.1,2.2,0,3.3,0.3c1,0.4,1.7,1.1,2.1,2.1c0.3,1.1,0.4,2.2,0.3,3.4v25.7
	c0.1,1.1,0,2.2-0.3,3.3c-0.4,1-1.1,1.7-2.1,2.1c-1.1,0.3-2.2,0.4-3.4,0.3H92.6c-1.1,0.1-2.2,0-3.3-0.3c-1-0.3-1.7-1.1-2.1-2.1
	c-0.3-1.1-0.4-2.2-0.3-3.4V56.5c-0.1-1.1,0-2.2,0.3-3.3c0.3-1,1.1-1.8,2.1-2.1C90.3,50.7,91.5,50.6,92.6,50.8L92.6,50.8z"/>
<path id="path48" d="M131.1,7.8h27.5c1.1-0.1,2.2,0,3.3,0.3c1,0.3,1.7,1.1,2.1,2.1c0.3,1.1,0.4,2.2,0.3,3.4v25.7
	c0.1,1.1,0,2.2-0.3,3.3c-0.4,1-1.1,1.7-2.1,2.1c-1.1,0.3-2.2,0.4-3.4,0.3h-27.5c-1.1,0.1-2.2,0-3.3-0.3c-1-0.4-1.7-1.1-2.1-2.1
	c-0.3-1.1-0.4-2.2-0.3-3.4V13.5c-0.1-1.1,0-2.2,0.3-3.3c0.4-1,1.1-1.7,2.1-2.1C128.8,7.9,130,7.8,131.1,7.8L131.1,7.8z"/>
<g class="st0">
	<path d="M243.5,41.8c3,2.6,4.5,5.9,4.5,9.8v16.5c0,3.7-1.3,6.8-4,9.4c-2.6,2.6-5.8,3.9-9.6,3.9h-48c-3.8,0-7-1.3-9.6-3.9
		c-2.6-2.6-4-5.7-4-9.4V65h11.3v3.1c0,0.6,0.2,1.1,0.7,1.6c0.5,0.4,1,0.7,1.6,0.7h48c0.6,0,1.2-0.2,1.6-0.7c0.5-0.4,0.7-1,0.7-1.6
		V51.6c0-0.6-0.2-1.1-0.7-1.6c-0.5-0.4-1-0.7-1.6-0.7h-48v-11h44.9c0.6,0,1.2-0.2,1.6-0.7c0.5-0.4,0.7-1,0.7-1.6v-15
		c0-0.6-0.2-1.1-0.7-1.6c-0.5-0.4-1-0.7-1.6-0.7h-44.9c-0.6,0-1.2,0.2-1.6,0.7c-0.5,0.4-0.7,1-0.7,1.6v4.1h-11.3v-4.1
		c0-3.7,1.3-6.8,4-9.4c2.6-2.6,5.8-3.9,9.6-3.9h44.9c3.8,0,7,1.3,9.6,3.9c2.6,2.6,4,5.7,4,9.4v15C244.8,38,244.4,39.9,243.5,41.8z"
		/>
	<path d="M254.8,7.8h48c3.8,0,7,1.3,9.6,3.9c2.6,2.6,4,5.7,4,9.4v60.3h-11.3V21.1c0-0.6-0.2-1.1-0.7-1.6c-0.5-0.4-1-0.7-1.6-0.7h-49
		v-11H254.8z"/>
	<path d="M376,22.1c3.8,0,7,1.3,9.6,3.9c2.6,2.6,4,5.7,4,9.4v32.7c0,3.7-1.3,6.8-4,9.4c-2.6,2.6-5.8,3.9-9.6,3.9h-48V2.7h11.3v19.4
		H376z M378.3,68.1V35.4c0-0.6-0.2-1.1-0.7-1.6c-0.5-0.4-1-0.7-1.6-0.7h-34.4c-0.6,0-1.2,0.2-1.6,0.7c-0.5,0.4-0.7,1-0.7,1.6v32.7
		c0,0.6,0.2,1.1,0.7,1.6c0.5,0.4,1,0.7,1.6,0.7H376c0.6,0,1.2-0.2,1.6-0.7C378,69.3,378.3,68.7,378.3,68.1z"/>
	<path d="M457.9,58.7v0.2v32.7c0,3.7-1.3,6.8-4,9.4c-2.6,2.6-5.8,3.9-9.6,3.9h-37.3v-11h37.3c0.6,0,1.2-0.2,1.6-0.7
		c0.5-0.4,0.7-1,0.7-1.6V81.4h-36.7c-3.8,0-7-1.3-9.6-3.9c-2.6-2.6-4-5.7-4-9.4V22.3h11.3v45.8c0,0.6,0.2,1.1,0.7,1.6
		c0.5,0.4,1,0.7,1.6,0.7h34.4c0.6,0,1.2-0.2,1.6-0.7c0.5-0.4,0.7-1,0.7-1.6V22.3h11.3V58.7z"/>
	<path d="M505,33.1h-24.8v35c0,0.6,0.2,1.1,0.7,1.6c0.5,0.4,1,0.7,1.6,0.7H505v11h-22.5c-3.8,0-7-1.3-9.6-3.9c-2.6-2.6-4-5.7-4-9.4
		V35.4V2.7h11.3v19.4H505V33.1z"/>
	<path d="M559.5,22.1c3.8,0,7,1.3,9.6,3.9c2.6,2.6,4,5.7,4,9.4v21.9h-50.3v10.8c0,0.6,0.2,1.1,0.7,1.6c0.5,0.4,1,0.7,1.6,0.7h48v11
		h-48c-3.8,0-7-1.3-9.6-3.9c-2.6-2.6-4-5.7-4-9.4V35.4c0-3.7,1.3-6.8,4-9.4c2.6-2.6,5.8-3.9,9.6-3.9H559.5z M522.7,46.2h39V35.4
		c0-0.6-0.2-1.1-0.7-1.6c-0.5-0.4-1-0.7-1.6-0.7H525c-0.6,0-1.2,0.2-1.6,0.7c-0.5,0.4-0.7,1-0.7,1.6V46.2z"/>
	<path d="M644.9,35.4v2.3h-11.3v-2.3c0-0.6-0.2-1.1-0.7-1.6c-0.5-0.4-1-0.7-1.6-0.7h-34.4c-0.6,0-1.2,0.2-1.6,0.7
		c-0.5,0.4-0.7,1-0.7,1.6V44c0,0.6,0.2,1.1,0.7,1.6c0.5,0.4,1,0.7,1.6,0.7h34.4c3.8,0,7,1.3,9.6,3.9c2.6,2.6,4,5.7,4,9.4v8.6
		c0,3.7-1.3,6.8-4,9.4c-2.6,2.6-5.8,3.9-9.6,3.9h-34.4c-3.8,0-7-1.3-9.6-3.9c-2.6-2.6-4-5.7-4-9.4v-2.3h11.3v2.3
		c0,0.6,0.2,1.1,0.7,1.6c0.5,0.4,1,0.7,1.6,0.7h34.4c0.6,0,1.2-0.2,1.6-0.7c0.5-0.4,0.7-1,0.7-1.6v-8.6c0-0.6-0.2-1.1-0.7-1.6
		c-0.5-0.4-1-0.7-1.6-0.7h-34.4c-3.8,0-7-1.3-9.6-3.9c-2.6-2.6-4-5.7-4-9.4v-8.6c0-3.7,1.3-6.8,4-9.4c2.6-2.6,5.8-3.9,9.6-3.9h34.4
		c3.8,0,7,1.3,9.6,3.9C643.6,28.6,644.9,31.7,644.9,35.4z"/>
</g>
</svg>
